/* XPM */
static char *result[] = {
/* columns rows colors chars-per-pixel */
"32 32 3 1 ",
"  c #FF1744",
". c white",
"X c None",
/* pixels */
"XXX.XXXXXXXXXXXXXXXXXXXXXXXXXXXX",
"XXXXXXX                  XXXXXXX",
"XXXXXX                    XXXXXX",
"XXXXX                      XXXXX",
"XXXX                        XXXX",
"XXX     XXXXXXXXXXXXXX       XXX",
"XXX      XXXXXXXXXXXXXXX     XXX",
"XXX       XXXXXXXXXXXXXX     XXX",
"XXX        XXXXXXXXXXXXXX    XXX",
"XXX    X    XXXXXXXXXXXXX    XXX",
"XXX    XX    XXXXXXXXXXXX    XXX",
"XXX    XXX    XXXXXXXXXXX    XXX",
"XXX    XXXX    XXXXXXXXXX    XXX",
"XXX    XXXXX    XXXXXXXXX    XXX",
"XXX    XXXXXX    XXXXXXXX    XXX",
"XXX    XXXXXXX    XXXXXXX    XXX",
"XXX    XXXXXXXX    XXXXXX    XXX",
"XXX    XXXXXXXXX    XXXXX    XXX",
"XXX    XXXXXXXXXX    XXXX    XXX",
"XXX    XXXXXXXXXXX    XXX    XXX",
"XXX    XXXXXXXXXXXX    XX    XXX",
"XXX    XXXXXXXXXXXXX    X    XXX",
"XXX    XXXXXXXXXXXXXX        XXX",
"XXX    XXXXXXXXXXXXXXX       XXX",
"XXX     XXXXXXXXXXXXXXX      XXX",
"XXX     XXXXXXXXXXXXXXXX     XXX",
"XXX       XXXXXXXXXXXXXX     XXX",
"XXXX                        XXXX",
"XXXXX                      XXXXX",
"XXXXXX                    XXXXXX",
"XXXXXXXXXXXXXXXXXXXXXXXXXXXXXXXX",
"XXXXXXXXXXXXXXXXXXXXXXXXXXXXXXXX"
};
