/* XPM */
static char *c3096e445c964fc78b82c2c46a5936fb0dBl2Om97FBt6wgn[] = {
/* columns rows colors chars-per-pixel */
"32 32 2 1 ",
"  c None",
". c #FF1744",
/* pixels */
"                                ",
"                ........        ",
"               .........        ",
"              ..........        ",
"             ...........        ",
"            ...... .....        ",
"           ......  .....        ",
"          ......   .....        ",
"         ......    .....        ",
"        ......     .....        ",
"       ......      .....        ",
"      ......       .....        ",
"     ......        .....        ",
"    ......         .....        ",
"    ......         .....        ",
"    ........................    ",
"    ........................    ",
"    ........................    ",
"    ........................    ",
"                   .....        ",
"                   .....        ",
"                   .....        ",
"                   .....        ",
"                   .....        ",
"                   .....        ",
"                   .....        ",
"                   .....        ",
"                   .....        ",
"                   .....        ",
"                   .....        ",
"                   .....        ",
"                                "
};
