/* XPM */
static char *b84195c9f4c34b778edb343333dcba82wuavZsIHPzRkZ54L[] = {
/* columns rows colors chars-per-pixel */
"32 32 2 1 ",
"  c None",
". c #FF1744",
/* pixels */
"   ..........................   ",
"   ..........................   ",
"   ..........................   ",
"   ..........................   ",
"   ...                    ...   ",
"   ...                    ...   ",
"   ...                    ...   ",
"   ...                          ",
"   ...                          ",
"   ...                          ",
"   ...                          ",
"   ...                          ",
"   ...                          ",
"   ...                          ",
"   .........................    ",
"   .........................    ",
"   .........................    ",
"   .........................    ",
"   .........................    ",
"                         ...    ",
"                         ...    ",
"                         ...    ",
"                         ...    ",
"                         ...    ",
"                         ...    ",
"   ...                   ...    ",
"   ...                   ...    ",
"   ...                   ...    ",
"   .........................    ",
"   .........................    ",
"   .........................    ",
"   .........................    "
};
