/* XPM */
static char *_068b0f0685741c1e92126db94257efcC4gNXIgbR6zhbGhR[] = {
/* columns rows colors chars-per-pixel */
"32 32 2 1 ",
"  c None",
". c #FF1744",
/* pixels */
"       .....................    ",
"      ......................    ",
"     .......................    ",
"    .......              ...    ",
"    ......               ...    ",
"    .....                       ",
"    .....                       ",
"    .....                       ",
"    .....                       ",
"    .....                       ",
"    .....                       ",
"    .....                       ",
"    ..... ..................    ",
"    ........................    ",
"    ........................    ",
"    ........................    ",
"    ......            ......    ",
"    .....              .....    ",
"    .....              .....    ",
"    ....                ....    ",
"    ....                ....    ",
"    ....                ....    ",
"    ....                ....    ",
"    ....                ....    ",
"    .....              .....    ",
"    .....              .....    ",
"    ......            ......    ",
"    ........................    ",
"     ......................     ",
"      ....................      ",
"       ..................       ",
"                                "
};
