/* XPM */
static char *_c9cd2523fde4cc9bfff720b22808989QJF794AQezn4ofPr[] = {
/* columns rows colors chars-per-pixel */
"32 32 2 1 ",
"  c None",
". c #FF1744",
/* pixels */
"                                ",
"  ...........................   ",
"  ...........................   ",
"  ...........................   ",
"  ...........................   ",
"  ...........................   ",
"                       ......   ",
"                      .......   ",
"                     ........   ",
"                    ........    ",
"                   ........     ",
"                  ........      ",
"                 ........       ",
"                ........        ",
"               ........         ",
"              ........          ",
"             ........           ",
"            ........            ",
"           ........             ",
"          ........              ",
"         ........               ",
"        ........                ",
"       ........                 ",
"      ........                  ",
"     ........                   ",
"    ........                    ",
"   ........                     ",
"  ........                      ",
"  .......                       ",
"  ......                        ",
"  .....                         ",
"                                "
};
