/* XPM */
static char *_5ae3a7613134f1ba54022b9d673e8cbmWCRFP5RflN3Y1GL[] = {
/* columns rows colors chars-per-pixel */
"32 32 3 1 ",
"  c None",
". c #FF1744",
"X c white",
/* pixels */
"   X                            ",
"       ..................       ",
"      ....................      ",
"     ......................     ",
"    ........................    ",
"   .......            .......   ",
"   .....                .....   ",
"   .....                .....   ",
"   ....                  ....   ",
"   ....                  ....   ",
"   ....                  ....   ",
"   ....                  ....   ",
"   .....                .....   ",
"    ....                ....    ",
"     .....            .....     ",
"     ......................     ",
"     ......................     ",
"    ........................    ",
"   .......            .......   ",
"   .....                .....   ",
"   .....                .....   ",
"   ....                  ....   ",
"   ....                  ....   ",
"   ....                  ....   ",
"   .....                .....   ",
"   .....                .....   ",
"   .......            .......   ",
"    ........................    ",
"     ......................     ",
"      ....................      ",
"                                ",
"                                "
};
