/* XPM */
static char *_0fc4afc2ae943a9f945dec735cb1109Jzc7m7hxsoqzj6n3[] = {
/* columns rows colors chars-per-pixel */
"32 32 2 1 ",
"  c None",
". c #FF1744",
/* pixels */
"       ..................       ",
"      ....................      ",
"     ......................     ",
"    ........................    ",
"    ......            ......    ",
"    .....              .....    ",
"    .....              .....    ",
"    ....                ....    ",
"    ....                ....    ",
"    ....                ....    ",
"    ....                ....    ",
"    ....                ....    ",
"    .....              .....    ",
"    .....              .....    ",
"    ......            ......    ",
"    ........................    ",
"    ........................    ",
"    ........................    ",
"    .................. .....    ",
"                       .....    ",
"                       .....    ",
"                       .....    ",
"                       .....    ",
"    ....               .....    ",
"    ....              ......    ",
"    ....             .......    ",
"    ........................    ",
"    ........................    ",
"    .......................     ",
"    ......................      ",
"    .....................       ",
"                                "
};
