/* XPM */
static char *_f382989ea424fe5d3a14ae1ff2889a6XTGsnl7jOsad3jZf[] = {
/* columns rows colors chars-per-pixel */
"32 32 8 1 ",
"  c None",
". c black",
"X c #4FC3F7",
"o c gray74",
"O c #FFECB3",
"+ c #FFCDD2",
"@ c #FFF9C4",
"# c white",
/* pixels */
"                                ",
"                                ",
"               O                ",
"           O   O   O            ",
"            O  O  O             ",
"             O   O              ",
"        O            O          ",
"       OO      oo    OO         ",
"       O      oOOo    O         ",
"             oOOOOo             ",
"             oOOOOo             ",
"   OO        oOOOOo     OO      ",
"    OO     oooOOOOooo  OO       ",
"           XXXXXXXXXX           ",
"           X@@@@@@@@X           ",
"         XXX@@@@@@@@XXX         ",
"       XXXXXXXXXXXXXXXXXX       ",
"       XXXXXXXXXXXXXXXXXX       ",
"       X@@X@@X@X@XX@X@X@X       ",
"       X@X@X@X@X@XX@@XX@X       ",
"       X@X@X@X@X@XX@@XXXX       ",
"       X@X@X@X@X@@X@X@X@X       ",
"       XXXXXXXXXXXXXXXXXX       ",
"       X@@@@@@@@@@@@@@@@X       ",
"       X@@..@@@@@@@@..@@X       ",
"       X@.#..@@@@@@..#.@X       ",
"       X@....@@@@@@....@X       ",
"       X@+..@@@@@@@@..+@X       ",
"       X@++@@.@@@@.@@++@X       ",
"       X@@@@@@....@@@@@@X       ",
"       XXXXXXXXXXXXXXXXXX       ",
"       XXXXXXXXXXXXXXXXXX       "
};
