/* XPM */
static char *bb6dd60054c840dcc77fb2c157eb2e4evNTZ4N7pN3lFPGYu[] = {
/* columns rows colors chars-per-pixel */
"32 32 5 1 ",
"  c None",
". c black",
"X c #EF9A9A",
"o c #82B1FF",
"O c #FFFDE7",
/* pixels */
"                                ",
"                                ",
"                                ",
"                                ",
"          oooooooooooo          ",
"          oOOOOOOOOOOo          ",
"          oOOOOOOOOOOo          ",
"          oooooooooooo          ",
"         oooooooooooooo         ",
"        oooooooooooooooo        ",
"       ooOOoOOoOoOooOoOoo       ",
"       ooOoOoOoOoOooOOooo       ",
"       ooOoOoOoOoOooOOooo       ",
"       ooOoOoOoOoOOoOoOoo       ",
"       oooooooooooooooooo       ",
"       oOOOOOOOOOOOOOOOOo       ",
"       oOO..OOOOOOOO..OOo       ",
"       oO.O..OOOOOO. ..Oo       ",
"       oO....OOOOOO....Oo       ",
"       oOX..OOOOOOOO..XOo       ",
"       oOXXOO.OOOO.OOXXOo       ",
"       oOOOOOO....OOOOOOo       ",
"       oOOOOOOOOOOOOOOOOo       ",
"       oooooooooooooooooo       ",
"       oooooooooooooooooo       ",
"                                ",
"                                ",
"                                ",
"                                ",
"                                ",
"                                ",
"                                "
};
