/* XPM */
static char *_3c65b94ceb842abd1a03198cdb330679Q3j1xZPX98s7HAl[] = {
/* columns rows colors chars-per-pixel */
"32 32 9 1 ",
"  c None",
". c black",
"X c #482D1E",
"o c #5F3A27",
"O c #744730",
"+ c #5F5F5F",
"@ c #727272",
"# c gray50",
"$ c #865337",
/* pixels */
"              ++++              ",
"           +++####+++           ",
"         ++##########++         ",
"        +@#############+        ",
"        +@#####...######+       ",
"       +@####...X...#####+      ",
"       +@###.XXX$$oO.####+      ",
"     ++@###.XXX$$$oOO.####+     ",
"    +@#####.XOX$$$oOO.#####+    ",
"    +@####.XXOX$$$oOOO.####+    ",
"   +@@###.XXOOX$$$oOOOO.####+   ",
"   +@####.XOOOX$$$oOOOO.####+   ",
"   +@###.XXOOOX$$$oOoOOo.###+   ",
"   +@###.XoOOOX$$$oOooOo.###+   ",
"   +@###.XoOOOX$$$oOOOOo.###+   ",
"   +@###.XoOOOX$$$oOOOOo.###+   ",
"  +@@###.XoOOOX$o$oOOOOo.####+  ",
"  +@@###.XoOOOX$o$oOOOOo.####+  ",
"  +@@##.XXoOOOX$$$oOOOOo$.###+  ",
"  +@@##.XOoOOOX$$$oOOOOo$.###+  ",
"  +@@##.XOoOOOX$$$oOOOOo$.###+  ",
"  +@@##.XOoOOOX$$$oOOOOo$.###+  ",
"  +@@##.XOoOOOX$$$oOOO.o$.###+  ",
" ++@###.XOoOOOX$$$oOO...$.###++ ",
" +@@###.XOoOOOX$$$oO...o$.####+ ",
" +@@##..XOoOOOX$$$oOOOoo$..###+ ",
" +@@##.XXOoOOOX$$$oOOOoo$$.###+ ",
" +@@##.XOOoOOOX$$$oOOOOo$$.###+ ",
" +@###.XOOoOOOX$$$oOOOOo$$.###+ ",
" +@###.XOOoOOOX$$$oOOOOo$$.###+ ",
" +@###.XOOooOOX$$$oOOOOo$$.###+ ",
" +@###.XOOooOOX$$ooOOOOo$$.###+ "
};
