/* XPM */
static char *c4c069e5688e4652f02cd7a999ff1e9b6Tek59X7qtUe7czG[] = {
/* columns rows colors chars-per-pixel */
"64 64 4 1 ",
"  c #3F6F2F",
". c #518D3D",
"X c #63AF49",
"o c #6AD367",
/* pixels */
" ..Xo. .o..o . o...oo. . .. ..oX.o.X..o.X....  X. X.X.X ooo  oX.",
".X .o..XXoXXX..XoooXXo ...XX XX.oX oooX oo. o X .oX.X....oo. . .",
" oX o.X...oX XX.o .oo.ooX..o.X X .Xo. .Xo.XX.X.XXo o X. XoX . Xo",
"XXoo X.oo.Xoo  . oo.XXooo.oXX .o .o.o .o.oo. .XoX o.XoXo  oo ..X",
"XoX  o XoooXo.XX XoXXoXoX.X XX. .  . .  . ....oo.oXXoXX .oX.oXX.",
". XXoo.X..XXo. o .XXXooX.XXXo. oX..X.X..X.X..o X. XXXX.XX.o. o..",
".oX. o.ooX.X.oXo  .X . .X.X.Xo   oo . oo ..X....o.XXXoooooo  oX.",
"XXX .o.....Xo..ooX oX. X.XoX X..oX.oXoX.oXX.oXo o.oX.oXX.oo. . .",
" .X.XoX..X.o.o..X ooXX.XX.X.X.XX.o. o.o. o...o.X.X ooXo.XoX . Xo",
"XoX .o..o.oX.o.X....  X. X.X.X ooo  ooo  oX.o.X...XX. o..X o.  o",
". Xoo.X.XX..oX oo. o X .oX.X....oo. .oo. . . .XX..oXXXXX.o.o.oo.",
" XoXX..Xo..X .Xo.XX.X.XXo o X. XoX . oX . Xo..XoXXo..XXooo ..  o",
" X. o o.oXoo .o.oo. .XoX o.XoXo  oo .X o.  oXo...oXXoooX....o.XX",
" XXX.o.oXo. .  . ....oo.oXXoXX .oX.oXo.o.oo. .XXoXo.XooooX.oo..o",
"...o XX.oX.oX..X.X..o X. XXXX.XX.o. oo ..  o.X.. XXX.o. X X.X.Xo",
"XXo.XX.XX o  oo ..X....o.XXXoooooo  o...o.XX.o.. .XXooXXooo..X.o",
".... XoXo. .oX.oXX.oXo o.oX.oXX.oo. .X.oo..o..XX..oo .X XX..X.XX",
".X.o X.o.oXX.o. o...o.X.X ooXo.XoX .  X.X.Xo.o..X.X Xoo.oXo.XXoo",
"X  o.o.XoXoooo  oX.o.X...XX. o..X o. oo..X.o .X..o.....X.o XX . ",
"..oX. ..X.X.oo. . . .XX..oXXXXX.o.o.oX..X.XX.....o XX.oo X.oXoo ",
"X XoX. o.X.XoX . Xo..XoXXo..XXooo .. Xo.XXooX.XX.o .o.....oXo. .",
".X  X .o....X o.  oXo...oXXoooX....o.o XX . X. .o . .. Xo ooX.oX",
" oX  .ooo.X.o.o.oo. .XXoXo.XooooX.oo.X.oXoo .o.oo. .XoXo.X.X o  ",
"X. XXo.oXXooo ..  o.X.. XXX.o. X X.X..oXo. .  . ....oo..X..o. .o",
"..XX o .ooX....o.XX.o.. .XXooXXooo..X ooX.oX..X.X..o X..XX..oXX.",
"X X .X. . ooX.oo..o..XX..oo .X XX..X.X.X o  . .XoX o.XoXo  oo .X",
".XoX X Xoo X X.X.Xo.o..X.X Xoo.oXo.XX..o. .o...oo.oXXoXX .oX.oXo",
". X X . X Xooo..X.o .X..o.....X.o XX X..oXX...o X. XXXX.XX.o. oo",
".X X oXX.X XX..X.XX.....o XX.oo X.oXooXoXoooX....o.XXXoooooo  o.",
" X  o. X o.oXo.XXooX.XX.o .o.....oXo...X.X.o.oXo o.oX.oXX.oo. .X",
".. .XX. .XX.o XX . X. .o . .. Xo ooX....  Xo..o.X.X ooXo.XoX .  ",
".oX..X.X..o X.oXoo .o.oo. .XoXo.X.X o. o X X.o.X...XX. o..X o. o",
"o  oo ..X....oXo. .  . ....oo..X..o. XX.X.Xo. .XX..oXXXXX.o.o.oX",
" .oX.oXX.oXo ooX.oX..X.X..o X..XX..oXo. .Xooo..XoXXo..XXooo .. X",
"XX.o. o...o.X.X o  oo ..X....o.XoXoXo....oo.oXo...oXXoooX....o.o",
"oooo  oX.o.X..o. .oX.oXX.oXo oo...X.XX..o XX. .XXoXo.XooooX.oo.X",
"X.oo. . . .XX..oXX.o. o...o.X.X....  .X....Xo.X.. XXX.o. X X.X..",
".XoX . Xo..XoXoXoooo  oX.o.X..oo. o XX.oXo oX.o.. .XXooXXooo..X ",
"..X o.  oXo...X.X.oo. . . .XX.o.XX.X....o.XXo..XX..oo .X XX..X.X",
"o..o.oX.o.X....  XoX . Xo..XoX.oo. .XX.o.X..o.o..X.X Xoo.oXo.XX.",
".X.XX..oX oo. o X X o.  oXo.... ....o . .XXoo .X..o.....X.o XX X",
"..Xo..X .Xo.XX.X.Xo.o.oo. .XXoX.X..o Xo..XooX.....o XX.oo X.oXoo",
" o.oXoo .o.oo. .Xoo ..  o.X..  ..X....Xo. .ooX.XX.o .o.....oXo..",
"o.oXo. .  . ....oo.oX.oX..X.X.oXX.oXo o.oXX. X. .o . .. Xo ooX..",
"XX.oX.oX..X.X..o XXX o  oo ..X o...o.XXoXooo .o.oo. .XoXo.X.X o.",
"X.XX o  oo ..X....Xo. .oX.oXX. oX.o.X..X.X.o.  . ....oo..X..o. X",
"XoXo. .oX.oXX.oXo o.oXX.o. o.. . . .XXo.X.XoX..X.X..o X..XX..oXo",
"X.o.oXX.o. o...o.XXoXoooo  oX.. Xo..Xoo....X oo ..X....o.XoXoXo.",
"o.XoXoooo  oX.o.X..X.X.oo. . ..  oXo..oo.X.ooX.oXX.oXo oo...X.XX",
" ..X.X.oo. . . .XXo.X.XoX . Xo..XooX....o.XX.o. o...o.X.X....  .",
". o.X.XoX . Xo..Xoo....X o.  oXo.. ooX.oo..ooo  oX.o.X..oo. o XX",
" .o....X o.  oXo..oo.X.o.o.oo. .Xoo X X.X.Xooo. . . .XX.o.XX.X..",
".ooo.X.o.o.oo. .XXoXXooo ..  o.X.X Xooo..X.ooX . Xo..XoX.oo. .XX",
"o.oXXooo ..  o.X...ooX....o.XX.o..X XX..X.XXX o.  oXo.... ....o ",
"o .ooX....o.XX.o.. . ooX.oo..o..X o.oXo.XXooo.o.oo. .XXoX.X..o X",
"X. . ooX.oo..o..XXXoo X X.X.Xo.o..XX.o XX . o ..  o.X..  ..X....",
"X Xoo X X.X.Xo.o.. X Xooo..X.o .X..o X.oXoo .oX.oX..X.X.oXX.oXo ",
" . X Xooo..X.o .X.X.X XX..X.XX...X....oXo. .XX o  oo ..X o...o.X",
"oXX.X XX..X.XX....X o.oXo.XXooX.X.oXo ooX.oXXo. .oX.oXX. oX.o.X.",
". X o.oXo.XXooX.XX .XX.o XX . X. ..o.X.X o  o.oXX.o. o.. . . .XX",
"X. .XX.o XX . X. .X..o X.oXoo .o..o.X..o. .oXoXoooo  oX.. Xo..Xo",
"X.X..o X.oXoo .o.o.X....oXo. .  .. .XX..oXX..X.X.oo. . ..  oXo..",
" ..X....oXo. .  . X.oXo ooX.oX..Xo..XoXoXoooo.X.XoX . Xo..XooX..",
"oXX.oXo ooX.oX..X....o.X.X o  oo oXo...X.X.oo....X o.  oXo.. ooX"
};
