/* XPM */
static char *f3165b445a654ab2a58c676558c96f658nyCNRST8XCKanrR[] = {
/* columns rows colors chars-per-pixel */
"32 32 14 1 ",
"  c None",
". c #37474F",
"X c #B71C1C",
"o c #C62828",
"O c #E53935",
"+ c #F57F17",
"@ c #EF5350",
"# c #FF9800",
"$ c #FFEA00",
"% c yellow",
"& c #FFEB3B",
"* c #607D8B",
"= c #EF9A9A",
"- c #FFECB3",
/* pixels */
"                                ",
"                             ***",
" ****                    ****.. ",
"  ...******               *...  ",
"  .......*                *...  ",
"   ......*                 *.   ",
"   .....*         ...      *.   ",
"   .....*   .*.*    ..     *.   ",
"     .***     .**@@@@.     ***  ",
"   ***...*    X*oo@@@@o   *...* ",
"  *......*    X@@&O@@@&   *..   ",
" *  ......*    X@@@@@@@@@ *.    ",
"     ....*.**   X@@@@@@@ ..*    ",
"       .*....***XXXXXX......*#@ ",
"       *.....XXX@@@@@@@.... * X&",
"      *.....XXX@@@@@@@@@X  & &@#",
"      *....XXXXXXXX@@X@@XXX#@#@ ",
"     *.   .XXX  XXXXXXXXX@@@@@  ",
"     *     XX    X@@@X@         ",
"         .XXX  .*X@@@@@      #  ",
"          XX**=&*X@@@@@        #",
"          X   *&-&@@@& &   +  ##",
"            ooo*-----&&   +   # ",
"          oooo.*X@&-----%++%    ",
"       oooo   XX@@@XX&----%% +  ",
"      oo     XX@@  oXXX%%%%++   ",
"      o      X@@@  ooo $$ ++    ",
"      o      XXX   oo           ",
"      o      oo     oo          ",
"       o     XX     ...         ",
"             .*                 ",
"                                "
};
