/* XPM */
static char *_610afde990d4350cac29650473c027fMrNL0JfniMSsFzSk[] = {
/* columns rows colors chars-per-pixel */
"32 32 11 1 ",
"  c None",
". c black",
"X c #795548",
"o c gray38",
"O c #B71C1C",
"+ c #FFEB3B",
"@ c #0D47A1",
"# c gray62",
"$ c gray74",
"% c #F48FB1",
"& c #FFCC80",
/* pixels */
"                                ",
"                                ",
"                                ",
"              XXXXX  XXX        ",
"            XXXXXXXXXXXXX       ",
"           XXXXXXXXXXXXXXX      ",
"          XXXXXXXXXXXXXXXX      ",
"         XXX++++++++++++XXX     ",
"         XX++++++$$++++++XX     ",
"         XX+XX&&+$$+&&XX+XX     ",
"         XX&&&XX&++&XX&&XXX     ",
"          X&&..&&&&&&..&XX      ",
"         XX&&..&&&&&&..&&X      ",
"         XX&%%&&&&&&&&%%&XX     ",
"          X&&%%&.&&.&%%&&XX     ",
"         XXX&&&&&..&&&&&&XX     ",
"     ##  XXXX&&&&&&&&&&XXXX     ",
"      ## XXXXXXX+&&&&XXXXX      ",
"       ## XXXXX+++++ooooX       ",
"        ### XX&O+OOoo..oo       ",
"         ###+#&OO+oo....oo      ",
"          #+&X#OOOo..oo.oo      ",
"          + && +++o..oo.oo      ",
"              +@@@oo....oo      ",
"             +@@@@ooo..oo       ",
"             +O@@ +ooooo        ",
"             ++OO +OO           ",
"              OOO  +OO          ",
"            +OOOO O+OO          ",
"             ++++ ++++          ",
"                                ",
"                                "
};
