/* XPM */
static char *b99b1d8cf0f241fffb4df60d897cde59LxvV9yoXWEnsiFOv[] = {
/* columns rows colors chars-per-pixel */
"32 32 5 1 ",
"  c black",
". c gray13",
"X c gray26",
"o c gray38",
"O c gray62",
/* pixels */
"OOOOOOOOOOOOOOOO Ooooooooooooooo",
"Oooooooooooooooo ooooooooo.ooooo",
"Oooooooooooooooo oooooooooOooooo",
"Oooooooooooooooo oo.Oooooooooooo",
"ooooooooooo.oooo                ",
"OooooooooooOoooo ooooooooooooooo",
"oooooooooooooooo ooooooooooooooo",
"oooooooooooooooo ooooooooooooooo",
"                 ooo.ooooooooooo",
"...............o oooOooooooooooo",
".........ooooooo ooooooooooooooo",
"...ooooooooooooO oooooooooo.Oooo",
"...ooooooooooooO ooooooooooooooo",
"..oooooooooooooO ooooooooooooooo",
"..oooooooooooooO ooooooooooooooo",
"OOOOOOOOOOOOOOOo ooooooooooooooo",
"                                ",
"....O oOOOOOOOOOOOoOo ..........",
"ooooO Ooooooooooooooo .......ooo",
"ooooO Ooooooooooooooo ..oooooooo",
"ooooO ooooooooooooooo ..oooooooo",
"ooooO Ooooooooooooooo ..oooooooo",
"OOOOo oooooooooooo.oo .OoOOOOOOO",
"                                ",
"OOOOOOOOOOOOOOoO ..............X",
"Ooooooooooooo.oo ..ooooooooooooO",
"OooooooooooooOoo oOoOOOOOOOOOOOo",
"Oooooooooooooooo                ",
"oooooooooooooooo OOOOOOOOOOOOOOO",
"Oooooooooooooooo Ooooooooooooooo",
"oo.Ooooooooooooo Ooooooooooooooo",
"                 Ooooooooooooooo"
};
